<?xml version="1.0" standalone="no"?><!DOCTYPE svg PUBLIC "-//W3C//DTD SVG 1.1//EN" "http://www.w3.org/Graphics/SVG/1.1/DTD/svg11.dtd"><svg t="1579487159472" class="icon" viewBox="0 0 1024 1024" version="1.1" xmlns="http://www.w3.org/2000/svg" p-id="1126" xmlns:xlink="http://www.w3.org/1999/xlink" width="200" height="200"><defs><style type="text/css"></style></defs><path d="M472.117895 511.029895l-95.043369-84.884211 57.559579-65.050947h0.565895v-59.284211h-56.400842l-23.713684-59.28421H286.989474l23.848421 59.28421H227.705263v59.284211h128.997053l-153.438316 173.325474 44.355368 37.995789 69.012211-77.931789v177.852631h59.28421v-172.651789l58.933895 52.682105 37.295158-41.337263z m341.692631 229.402947a442.906947 442.906947 0 0 0 95.663158-275.590737c0-245.598316-199.033263-444.631579-444.631579-444.631579S20.210526 219.243789 20.210526 464.842105s199.033263 444.631579 444.631579 444.631579c104.097684 0 199.841684-35.786105 275.590737-95.663158l187.823158 187.823158 73.377684-73.404631-187.823158-187.823158zM464.842105 820.547368c-196.500211 0-355.705263-159.205053-355.705263-355.705263 0-196.500211 159.205053-355.705263 355.705263-355.705263 196.500211 0 355.705263 159.205053 355.705263 355.705263 0 196.500211-159.205053 355.705263-355.705263 355.705263z m133.389474-207.494736v-177.852632h103.747368v-59.284211H598.231579V242.526316H538.947368v133.389473h-103.747368v59.284211H538.947368v177.852632h-118.568421v59.28421h296.421053v-59.28421h-118.568421z" fill="#18AAFF" p-id="1127"></path></svg>